<svg xmlns="http://www.w3.org/2000/svg" viewBox="0 0 256 256">
    <g transform="matrix(.45076 0 0 .45076 .22535 .2254)">
        <path d="m566.93 283.46c0-156.55-126.91-283.46-283.46-283.46-156.55 0-283.46 126.91-283.46 283.46 0 156.55 126.91 283.46 283.46 283.46 156.55 0 283.46-126.91 283.46-283.46m-369.07 42.203-2.2969 7.0664c-8.3008-1.4141-13.598-5.125-15.367-15.543v-0.17579c-6.5352 10.949-17.309 15.719-29.141 15.719-17.84 0-28.438-11.129-28.438-27.73 0-19.254 15.543-29.32 40.445-29.32h15.898v-9.1836c0-14.484-6.3594-21.371-22.078-21.371-6.8906 0-14.836 1.2344-24.902 5.1211l-2.8281-7.9453c11.305-4.418 20.488-5.8281 29.145-5.8281 21.723 0 30.73 10.949 30.73 29.492v44.688c0 10.066 3.0039 13.246 8.832 15.012m77.359-121.16-3.3555 7.7695c-6.3594-3.0039-12.188-4.0625-17.484-4.0625-11.66 0-16.074 4.9453-16.074 15.012v15.191h24.375l-1.2383 8.3008h-23.137v84.07h-10.066v-84.07h-17.133v-8.3008h17.133v-15.719c0-14.133 8.6523-23.141 25.609-23.141 7.9492 0 14.836 1.7695 21.371 4.9492m9.0039 80.535c0 26.496 11.66 39.035 28.613 39.035 8.4766 0 15.367-2.2969 22.609-8.125l4.9453 7.0664c-7.7734 6.3594-17.84 9.7148-28.258 9.7148-24.023 0-38.684-18.195-38.684-47.691 0-29.141 15.367-48.566 39.387-48.566 10.422 0 19.43 2.8242 27.555 9.5352l-5.3008 6.8867c-6.8867-5.4727-13.777-7.7695-22.254-7.7695-16.953 0-28.613 13.246-28.613 39.914m145.54 40.625-2.293 7.0664c-8.3047-1.4141-13.602-5.125-15.367-15.543v-0.17579c-6.5352 10.949-17.309 15.719-29.145 15.719-17.84 0-28.434-11.129-28.434-27.73 0-19.254 15.543-29.32 40.445-29.32h15.895v-9.1836c0-14.484-6.3555-21.371-22.078-21.371-6.8867 0-14.836 1.2344-24.902 5.1211l-2.8242-7.9453c11.301-4.418 20.484-5.8281 29.141-5.8281 21.727 0 30.734 10.949 30.734 29.492v44.688c0 10.066 3 13.246 8.8281 15.012m43.801-1.2344c0 4.7656-3.1797 8.3008-8.4766 8.3008-5.1211 0-8.4766-3.5352-8.4766-8.3008 0-4.7695 3.3555-8.3047 8.4766-8.3047 5.2969 0 8.4766 3.5352 8.4766 8.3047m-62.699-17.133v-23.668h-15.367c-19.777 0-30.199 6.7109-30.199 20.84 0 12.719 7.2383 19.605 20.133 19.605 11.48 0 20.312-6.7109 25.434-16.777m-231.9 0v-23.668h-15.367c-19.781 0-30.203 6.7109-30.203 20.84 0 12.719 7.2422 19.605 20.137 19.605 11.48 0 20.312-6.7109 25.434-16.777" stroke="#fff"></path>
    </g>
</svg>
