<?xml version="1.0" encoding="UTF-8"?>
<svg xmlns="http://www.w3.org/2000/svg" id="Layer_1" data-name="Layer 1" width="167.7739" height="39.05797" viewBox="0 0 167.7739 39.05797">
  <defs>
    <style>
      .cls-1 {
        fill: #006db1;
      }

      .cls-2 {
        fill: #7397cc;
      }

      .cls-3 {
        fill: #9fb4db;
      }

      .cls-4 {
        fill: #4380bd;
      }
    </style>
  </defs>
  <polygon class="cls-3" points="152.29432 30.132 143.84631 30.132 137.14532 36.83 161.07331 36.83 161.07331 30.132 152.29432 30.132"></polygon>
  <polygon class="cls-3" points="130.93192 6.6762 130.93192 30.6182 137.60992 23.9422 137.60992 15.4742 137.60992 6.6762 130.93192 6.6762"></polygon>
  <polygon class="cls-3" points="137.60992 0 137.60992 6.676 161.07291 6.676 161.07291 30.132 167.7739 30.132 167.7739 0 137.60992 0"></polygon>
  <polygon class="cls-2" points="146.07851 15.4747 137.6095 15.4747 137.6095 23.9417 146.07851 15.4747"></polygon>
  <polygon class="cls-2" points="152.29392 21.6867 143.84591 30.1317 152.29392 30.1317 152.29392 21.6867"></polygon>
  <polygon class="cls-4" points="130.93192 30.618 130.93192 36.83 137.14591 36.83 143.84591 30.132 137.60992 30.132 137.60992 23.942 130.93192 30.618"></polygon>
  <polygon class="cls-1" points="137.60992 6.6763 137.60992 15.4743 146.07891 15.4743 137.60992 23.9413 137.60992 30.1323 143.84591 30.1323 152.29391 21.6863 152.29391 30.1323 161.07291 30.1323 161.07291 6.6763 137.60992 6.6763"></polygon>
  <g>
    <path class="cls-1" d="M10.08252,7.41051v1.42773H2.77441v5.08203h5.41846v1.42871H2.77441v7.22363H1.09473V7.41051H10.08252Z"></path>
    <path class="cls-1" d="M13.98877,7.41051v10.70996c0,.44824,.07666,.86816,.23096,1.25977,.15381,.39258,.38477,.73535,.69287,1.0293,.30762,.29395,.68945,.52539,1.14453,.69336,.45459,.16797,.97656,.25195,1.56445,.25195s1.10938-.08398,1.56445-.25195c.45459-.16797,.83643-.39941,1.14453-.69336,.30762-.29395,.53857-.63672,.69287-1.0293,.15381-.3916,.23096-.81152,.23096-1.25977V7.41051h1.68018v10.58398c0,.75586-.12988,1.43164-.38867,2.02637-.25928,.5957-.62305,1.0957-1.0918,1.50195-.46924,.40625-1.0293,.71777-1.68018,.93457s-1.36865,.3252-2.15234,.3252c-.78418,0-1.50146-.1084-2.15234-.3252-.65137-.2168-1.21143-.52832-1.68018-.93457-.46924-.40625-.83301-.90625-1.0918-1.50195-.25928-.59473-.38867-1.27051-.38867-2.02637V7.41051h1.68018Z"></path>
    <path class="cls-1" d="M31.54443,8.83824v13.73438h-1.68018V8.83824h-4.53613v-1.42773h10.75195v1.42773h-4.53564Z"></path>
    <path class="cls-1" d="M40.15479,7.41051v10.70996c0,.44824,.07666,.86816,.23096,1.25977,.15381,.39258,.38477,.73535,.69287,1.0293,.30762,.29395,.68945,.52539,1.14453,.69336,.45459,.16797,.97656,.25195,1.56445,.25195s1.10938-.08398,1.56445-.25195c.45459-.16797,.83643-.39941,1.14453-.69336,.30762-.29395,.53857-.63672,.69287-1.0293,.15381-.3916,.23096-.81152,.23096-1.25977V7.41051h1.68018v10.58398c0,.75586-.12988,1.43164-.38867,2.02637-.25928,.5957-.62305,1.0957-1.0918,1.50195-.46924,.40625-1.0293,.71777-1.68018,.93457s-1.36865,.3252-2.15234,.3252c-.78418,0-1.50146-.1084-2.15234-.3252-.65137-.2168-1.21143-.52832-1.68018-.93457-.46924-.40625-.83301-.90625-1.0918-1.50195-.25928-.59473-.38867-1.27051-.38867-2.02637V7.41051h1.68018Z"></path>
    <path class="cls-1" d="M52.83789,22.57262V7.41051h4.87207c1.65186,0,2.9082,.34668,3.76953,1.04004,.86084,.69238,1.2915,1.67676,1.2915,2.9502,0,1.07812-.28027,1.93164-.84033,2.56152s-1.28809,1.09277-2.18408,1.38672l3.21338,7.22363h-1.82715l-3.06592-6.8877h-3.54932v6.8877h-1.67969Zm1.67969-8.31641h3.04541c1.16162,0,2.04004-.21973,2.63525-.66113,.59473-.44141,.89258-1.14453,.89258-2.11035,0-.50391-.08398-.92773-.25195-1.27051s-.40625-.61621-.71387-.81934c-.30811-.20215-.6792-.34668-1.11328-.43066s-.92383-.12598-1.46973-.12598h-3.02441v5.41797Z"></path>
    <path class="cls-1" d="M75.18164,7.41051v1.42773h-7.4126v5.08203h5.271v1.42871h-5.271v5.7959h7.83252v1.42773h-9.5127V7.41051h9.09277Z"></path>
  </g>
  <g>
    <path d="M79.13086,22.57262V7.41051h4.07373l2.91895,10.58398h.04199l2.93994-10.58398h4.11621v15.16211h-2.52002V10.64488h-.04199l-3.40186,11.92773h-2.20508l-3.35986-11.92773h-.04199v11.92773h-2.52002Z"></path>
    <path d="M96.09863,22.57262V7.41051h10.0376v2.43652h-7.13965v3.61133h5.18701v2.43652h-5.18701v4.24219h7.37109v2.43555h-10.26904Z"></path>
    <path d="M108.17334,22.57262V7.41051h4.07373l2.91895,10.58398h.04199l2.93994-10.58398h4.11621v15.16211h-2.52002V10.64488h-.04199l-3.40186,11.92773h-2.20508l-3.35986-11.92773h-.04199v11.92773h-2.52002Z"></path>
  </g>
  <g>
    <path d="M.96826,36.94566v-5.03809H0v-.68164H.96826v-.64941c0-.33691,.0293-.61426,.08789-.83008,.05859-.2168,.14453-.38867,.2583-.51758,.11377-.12793,.25879-.21582,.43457-.26367,.17627-.04785,.38135-.07129,.61621-.07129,.11719,0,.23438,.00488,.35205,.0166,.11719,.01074,.23438,.02344,.35205,.03809v.7041c-.0957-.01465-.19287-.03125-.2915-.0498-.09912-.01758-.19287-.02734-.28076-.02734-.27148,0-.46191,.05469-.57178,.16504-.11035,.11035-.16504,.32617-.16504,.64941v.83594h1.24268v.68164H1.76025v5.03809H.96826Z"></path>
    <path d="M7.49121,36.94566v-.76953h-.02197c-.22754,.25586-.48438,.4668-.77002,.63184-.28613,.16504-.59424,.24805-.92432,.24805-.21289,0-.41797-.0293-.61572-.08789-.19824-.05859-.37402-.1543-.52832-.28613-.15381-.13281-.27686-.30469-.36816-.51758-.0918-.21191-.1377-.47266-.1377-.78027v-4.1582h.79199v4.13574c0,.38184,.08398,.64551,.25293,.79199,.16846,.14648,.396,.21973,.68213,.21973,.14648,0,.29883-.02734,.45654-.08203,.15771-.05566,.30811-.125,.45068-.20898,.14307-.08398,.27881-.17773,.40723-.28027,.12842-.10352,.23633-.20215,.32471-.29785v-4.27832h.79199v5.71973h-.79199Zm-2.64014-6.49023v-1.03418h.96777v1.03418h-.96777Zm1.73779,0v-1.03418h.96826v1.03418h-.96826Z"></path>
    <path d="M9.85596,31.22594h.79199v1.13281h.02197c.10986-.19824,.22363-.37207,.34082-.52246s.24951-.27637,.396-.37988c.14697-.10254,.31201-.18164,.49512-.23633s.39209-.08203,.62695-.08203v.79199c-.49854,.01465-.88916,.17773-1.17139,.48926s-.51904,.76465-.70947,1.3584v3.16797h-.79199v-5.71973Z"></path>
    <path d="M21.25195,29.00328v6.68848c0,.21289-.00195,.42188-.00537,.62695-.00391,.20508,.0127,.41406,.04932,.62695h-.72607l-.10986-.56055c-.13184,.18262-.33008,.34082-.59375,.47266-.26416,.13184-.56836,.19824-.91309,.19824-.25684,0-.52246-.04785-.79785-.14355-.2749-.09473-.52588-.25684-.75342-.4834-.22705-.22754-.41602-.53223-.56641-.91309-.15039-.38184-.22559-.8584-.22559-1.43066,0-.55664,.0752-1.02441,.22559-1.40234,.15039-.37695,.3374-.68164,.56104-.91309,.22363-.23047,.47119-.39746,.74268-.5,.271-.10254,.52783-.1543,.77002-.1543,.271,0,.53516,.06055,.79199,.18164,.25635,.12109,.49463,.27344,.71484,.45605l.04395,.02246v-2.77246h.79199Zm-.79199,3.58594c-.21289-.23438-.44727-.4248-.7041-.57129s-.50244-.2207-.73682-.2207c-.23486,0-.44922,.04102-.64355,.12109-.19434,.08105-.36475,.21289-.51172,.39648-.14648,.18359-.26025,.42383-.34082,.7207s-.12109,.66113-.12109,1.09375c0,.7334,.14502,1.29102,.43457,1.67285,.28955,.38086,.68359,.57129,1.18262,.57129,.25635,0,.49121-.05859,.7041-.17578,.2124-.11719,.45801-.31543,.73682-.59375v-3.01465Z"></path>
    <path d="M23.80371,28.8939v.94531h-.79199v-.94531h.79199Zm-.79199,2.33203h.79199v5.71973h-.79199v-5.71973Z"></path>
    <path d="M29.88672,35.72496c-.09521,.16113-.20166,.32031-.31885,.47852-.11768,.15723-.26221,.30078-.43457,.42871s-.37598,.23145-.61035,.30762c-.23486,.07715-.51367,.11621-.83643,.11621s-.63232-.05762-.9292-.1709-.56104-.29102-.79199-.5332-.4165-.5498-.55566-.92383-.20898-.82129-.20898-1.34277c0-.46191,.05518-.87598,.16504-1.24219,.10986-.36719,.26758-.67871,.47314-.93555,.20508-.25684,.45068-.45215,.73682-.58887,.28613-.13477,.60498-.20312,.95703-.20312,.29346,0,.57227,.0498,.83594,.14844,.26416,.09961,.49512,.25293,.69287,.46191,.19824,.20898,.35596,.47852,.47314,.80859s.17627,.72266,.17627,1.17676v.52832h-3.71826c0,.31543,.04395,.60352,.13184,.86328,.08838,.26074,.20947,.48438,.36328,.6709,.15381,.1875,.3335,.33398,.53906,.44043,.20508,.10645,.42529,.15918,.65967,.15918,.35205,0,.66211-.08594,.92969-.25781,.26758-.17285,.48584-.40918,.6543-.70996l.61621,.31934Zm-.96777-2.16699c0-.52832-.11963-.95312-.35791-1.27637-.23828-.32227-.57373-.48438-1.00635-.48438-.48389,0-.85254,.16211-1.10547,.48438-.25293,.32324-.39795,.74805-.43457,1.27637h2.9043Z"></path>
    <path d="M39.23682,36.94566h-5.12598v-.6377l3.98193-6.55664h-3.61914v-.74805h4.71924v.57227l-4.04834,6.62207h4.09229v.74805Z"></path>
    <path d="M43.83496,36.94566v-.76953h-.02197c-.22754,.25586-.48438,.4668-.77002,.63184-.28613,.16504-.59424,.24805-.92432,.24805-.21289,0-.41797-.0293-.61572-.08789-.19824-.05859-.37402-.1543-.52832-.28613-.15381-.13281-.27686-.30469-.36816-.51758-.0918-.21191-.1377-.47266-.1377-.78027v-4.1582h.79199v4.13574c0,.38184,.08398,.64551,.25293,.79199,.16846,.14648,.396,.21973,.68213,.21973,.14648,0,.29883-.02734,.45654-.08203,.15771-.05566,.30811-.125,.45068-.20898,.14307-.08398,.27881-.17773,.40723-.28027,.12842-.10352,.23633-.20215,.32471-.29785v-4.27832h.79199v5.71973h-.79199Z"></path>
    <path d="M46.27686,29.00328h.79199v5.11523h.02197l2.31006-2.89258h.95703l-1.68311,2.11133,1.90332,3.6084h-.93506l-1.51807-2.92578-1.05615,1.20996v1.71582h-.79199v-7.94238Z"></path>
    <path d="M54.91211,36.94566v-.76953h-.02197c-.22754,.25586-.48438,.4668-.77002,.63184-.28613,.16504-.59424,.24805-.92432,.24805-.21289,0-.41797-.0293-.61572-.08789-.19824-.05859-.37402-.1543-.52832-.28613-.15381-.13281-.27686-.30469-.36816-.51758-.0918-.21191-.1377-.47266-.1377-.78027v-4.1582h.79199v4.13574c0,.38184,.08398,.64551,.25293,.79199,.16846,.14648,.396,.21973,.68213,.21973,.14648,0,.29883-.02734,.45654-.08203,.15771-.05566,.30811-.125,.45068-.20898,.14307-.08398,.27881-.17773,.40723-.28027,.12842-.10352,.23633-.20215,.32471-.29785v-4.27832h.79199v5.71973h-.79199Z"></path>
    <path d="M58.17871,31.22594v.76953h.02197c.22705-.25684,.48389-.46777,.77002-.63184,.28613-.16504,.59424-.24805,.92383-.24805,.21289,0,.41797,.0293,.61621,.08789,.19775,.05859,.37402,.1543,.52783,.28613,.1543,.13184,.27686,.30469,.36865,.5166,.0918,.21289,.1377,.47363,.1377,.78125v4.1582h-.79199v-4.13574c0-.38184-.08447-.64551-.25342-.79199-.16846-.14648-.396-.2207-.68164-.2207-.14697,0-.29883,.02832-.45654,.08301s-.30811,.125-.45117,.20898-.27881,.17773-.40674,.28027c-.12842,.10254-.23682,.20215-.32471,.29688v4.2793h-.79199v-5.71973h.79199Z"></path>
    <path d="M63.55811,36.94566v-5.03809h-.96826v-.68164h.96826v-.64941c0-.33691,.0293-.61426,.08789-.83008,.05859-.2168,.14453-.38867,.2583-.51758,.11377-.12793,.25879-.21582,.43457-.26367,.17627-.04785,.38135-.07129,.61621-.07129,.11719,0,.23438,.00488,.35205,.0166,.11719,.01074,.23438,.02344,.35205,.03809v.7041c-.0957-.01465-.19287-.03125-.2915-.0498-.09912-.01758-.19287-.02734-.28076-.02734-.27148,0-.46191,.05469-.57178,.16504-.11035,.11035-.16504,.32617-.16504,.64941v.83594h1.24268v.68164h-1.24268v5.03809h-.79199Z"></path>
    <path d="M67.24268,31.22594v-1.88086h.79199v1.88086h1.32031v.68164h-1.32031v4.07031c0,.13184,.0498,.23047,.14893,.29688,.09863,.06543,.26562,.09863,.50049,.09863,.13184,0,.25635-.00488,.37402-.0166,.11719-.01074,.22705-.02344,.32959-.03809v.64941c-.07324,.02148-.18701,.04199-.34082,.05957-.15381,.01855-.34863,.02832-.58301,.02832-.43262,0-.74463-.06641-.93506-.19824-.19092-.13184-.28613-.38086-.28613-.74805v-4.20215h-.93457v-.68164h.93457Z"></path>
    <path d="M77.4834,39.05797v-2.66211l-.04395,.02148c-.22021,.18359-.4585,.33594-.71484,.45703-.25684,.12109-.521,.18164-.79199,.18164-.24219,0-.49902-.05176-.77002-.1543-.27148-.10254-.51904-.26953-.74268-.50098-.22363-.23047-.41064-.53516-.56104-.91211-.15039-.37793-.22559-.8457-.22559-1.40332,0-.57129,.0752-1.04785,.22559-1.42969,.15039-.38086,.33936-.68555,.56641-.91309,.22754-.22754,.47852-.38867,.75342-.4834,.27539-.0957,.54102-.14355,.79785-.14355,.34473,0,.6416,.06641,.89111,.19824,.24902,.13184,.45801,.30469,.62695,.5166l.14258-.60449h.63818v7.83203h-.79199Zm0-6.49023c-.27881-.27832-.52441-.47656-.73682-.59375-.21289-.11719-.44775-.17676-.7041-.17676-.49902,0-.89307,.19141-1.18262,.57227-.28955,.38184-.43457,.93848-.43457,1.67188,0,.43262,.04053,.79785,.12109,1.09473s.19434,.53711,.34082,.7207c.14697,.18359,.31738,.31543,.51172,.39551,.19434,.08105,.40869,.12109,.64355,.12109,.23438,0,.47998-.07324,.73682-.21973s.49121-.33691,.7041-.57227v-3.01367Z"></path>
    <path d="M83.31396,36.94566v-.76953h-.02197c-.22754,.25586-.48438,.4668-.77002,.63184-.28613,.16504-.59424,.24805-.92432,.24805-.21289,0-.41797-.0293-.61572-.08789-.19824-.05859-.37402-.1543-.52832-.28613-.15381-.13281-.27686-.30469-.36816-.51758-.0918-.21191-.1377-.47266-.1377-.78027v-4.1582h.79199v4.13574c0,.38184,.08398,.64551,.25293,.79199,.16846,.14648,.396,.21973,.68213,.21973,.14648,0,.29883-.02734,.45654-.08203,.15771-.05566,.30811-.125,.45068-.20898,.14307-.08398,.27881-.17773,.40723-.28027,.12842-.10352,.23633-.20215,.32471-.29785v-4.27832h.79199v5.71973h-.79199Z"></path>
    <path d="M85.53564,32.32555c.18311-.33008,.45117-.61426,.80322-.85254s.79883-.35742,1.3418-.35742c.24219,0,.48047,.03125,.71484,.09375,.23486,.0625,.4458,.16113,.63281,.29688s.33887,.31152,.45654,.52832c.11719,.21582,.17578,.48145,.17578,.79688v2.88184c0,.31543,.0127,.56348,.03857,.74316,.02539,.17969,.05664,.34277,.09326,.48926h-.81396l-.08789-.79199c-.19775,.21973-.45459,.42578-.77002,.61621s-.68945,.28613-1.12207,.28613c-.21973,0-.42871-.0332-.62695-.09961-.19775-.06543-.37012-.16504-.51709-.29688-.14648-.13184-.26367-.29492-.35156-.48926-.08838-.19434-.13232-.42383-.13232-.6875,0-.31543,.0625-.5918,.18701-.83105,.12451-.2373,.32617-.4502,.60498-.6377,.27881-.18652,.63965-.34961,1.0835-.48926s.98438-.26367,1.62256-.37402v-.30762c0-.38184-.10986-.65137-.33008-.80859-.21973-.1582-.50244-.2373-.84668-.2373-.22021,0-.4126,.02832-.57764,.08301s-.30615,.12598-.42334,.21484c-.11768,.08789-.21484,.18457-.2915,.29102-.07715,.10645-.13428,.20703-.1709,.30273l-.69287-.36328Zm3.33301,1.5293c-1.8042,.31543-2.70605,.86133-2.70605,1.63867,0,.13184,.0293,.25293,.08789,.36328s.13232,.20312,.22021,.28027,.18848,.13574,.30225,.17578c.11377,.04102,.22559,.06055,.33594,.06055,.13916,0,.28955-.02344,.45068-.07129s.31934-.11523,.47314-.20312,.30225-.18945,.44531-.30273,.27344-.23633,.39062-.36816v-1.57324Z"></path>
    <path d="M92.08057,29.00328v7.94238h-.79199v-7.94238h.79199Z"></path>
    <path d="M94.70947,28.8939v.94531h-.79199v-.94531h.79199Zm-.79199,2.33203h.79199v5.71973h-.79199v-5.71973Z"></path>
    <path d="M96.85449,36.94566v-5.03809h-.96826v-.68164h.96826v-.64941c0-.33691,.0293-.61426,.08789-.83008,.05859-.2168,.14453-.38867,.2583-.51758,.11377-.12793,.25879-.21582,.43457-.26367,.17627-.04785,.38135-.07129,.61621-.07129,.11719,0,.23438,.00488,.35205,.0166,.11719,.01074,.23438,.02344,.35205,.03809v.7041c-.0957-.01465-.19287-.03125-.2915-.0498-.09912-.01758-.19287-.02734-.28076-.02734-.27148,0-.46191,.05469-.57178,.16504-.11035,.11035-.16504,.32617-.16504,.64941v.83594h1.24268v.68164h-1.24268v5.03809h-.79199Z"></path>
    <path d="M100.92432,28.8939v.94531h-.79199v-.94531h.79199Zm-.79199,2.33203h.79199v5.71973h-.79199v-5.71973Z"></path>
    <path d="M106.34766,36.94566h-4.22412v-.57227l3.12402-4.46582h-2.81592v-.68164h3.89404v.57129l-3.12402,4.4668h3.146v.68164Z"></path>
    <path d="M108.33789,28.8939v.94531h-.79199v-.94531h.79199Zm-.79199,2.33203h.79199v5.71973h-.79199v-5.71973Z"></path>
    <path d="M114.41016,35.72496c-.09521,.16113-.20166,.32031-.31885,.47852-.11768,.15723-.26221,.30078-.43457,.42871s-.37598,.23145-.61035,.30762c-.23486,.07715-.51367,.11621-.83643,.11621s-.63232-.05762-.9292-.1709-.56104-.29102-.79199-.5332-.4165-.5498-.55566-.92383-.20898-.82129-.20898-1.34277c0-.46191,.05518-.87598,.16504-1.24219,.10986-.36719,.26758-.67871,.47314-.93555,.20508-.25684,.45068-.45215,.73682-.58887,.28613-.13477,.60498-.20312,.95703-.20312,.29346,0,.57227,.0498,.83594,.14844,.26416,.09961,.49512,.25293,.69287,.46191,.19824,.20898,.35596,.47852,.47314,.80859s.17627,.72266,.17627,1.17676v.52832h-3.71826c0,.31543,.04395,.60352,.13184,.86328,.08838,.26074,.20947,.48438,.36328,.6709,.15381,.1875,.3335,.33398,.53906,.44043,.20508,.10645,.42529,.15918,.65967,.15918,.35205,0,.66211-.08594,.92969-.25781,.26758-.17285,.48584-.40918,.6543-.70996l.61621,.31934Zm-.96777-2.16699c0-.52832-.11963-.95312-.35791-1.27637-.23828-.32227-.57373-.48438-1.00635-.48438-.48389,0-.85254,.16211-1.10547,.48438-.25293,.32324-.39795,.74805-.43457,1.27637h2.9043Z"></path>
    <path d="M115.49951,31.22594h.79199v1.13281h.02197c.10986-.19824,.22363-.37207,.34082-.52246s.24951-.27637,.396-.37988c.14697-.10254,.31201-.18164,.49512-.23633s.39209-.08203,.62695-.08203v.79199c-.49854,.01465-.88916,.17773-1.17139,.48926s-.51904,.76465-.70947,1.3584v3.16797h-.79199v-5.71973Z"></path>
    <path d="M119.75586,31.22594v-1.88086h.79199v1.88086h1.3208v.68164h-1.3208v4.07031c0,.13184,.0498,.23047,.14893,.29688,.09863,.06543,.26562,.09863,.50049,.09863,.13184,0,.25635-.00488,.37402-.0166,.11768-.01074,.22705-.02344,.32959-.03809v.64941c-.07324,.02148-.18652,.04199-.34082,.05957-.15381,.01855-.34863,.02832-.58301,.02832-.43262,0-.74463-.06641-.93506-.19824-.19092-.13184-.28613-.38086-.28613-.74805v-4.20215h-.93457v-.68164h.93457Z"></path>
  </g>
</svg>
